<svg width="100" height="100" viewBox="0 0 65 90" fill="none" xmlns="http://www.w3.org/2000/svg">
<g clip-path="url(#clip0_258_1535)">
<path d="M47.151 35.1399C48.4633 39.0745 48.5543 43.3142 47.412 47.3015C46.2697 51.2888 43.9476 54.8371 40.751 57.4799L38.701 55.9399C42.181 47.9999 38.2509 39.7299 31.5509 34.0899C31.3274 33.9015 31.0473 33.7932 30.7552 33.7823C30.463 33.7714 30.1756 33.8586 29.9387 34.0299C29.7018 34.2013 29.5291 34.4469 29.4479 34.7278C29.3668 35.0087 29.3819 35.3087 29.4909 35.5799C31.9709 41.9999 33.2809 48.3699 28.4309 53.1599C28.2641 53.3267 28.0557 53.4456 27.8272 53.5045C27.5988 53.5634 27.3588 53.5599 27.1322 53.4946C26.9056 53.4293 26.7006 53.3044 26.5386 53.133C26.3766 52.9616 26.2634 52.7499 26.2109 52.5199V52.4399C26.1467 52.1378 25.9779 51.8681 25.7341 51.6784C25.4904 51.4887 25.1874 51.3913 24.8788 51.4032C24.5702 51.4152 24.2757 51.5358 24.0474 51.7438C23.8191 51.9518 23.6716 52.2338 23.631 52.5399C23.4014 53.8215 23.4686 55.1387 23.8274 56.3903C24.1863 57.6419 24.8272 58.7946 25.701 59.7599C25.8927 59.954 26.0191 60.2031 26.0625 60.4724C26.1059 60.7418 26.0642 61.0179 25.943 61.2624C25.8219 61.5069 25.6275 61.7074 25.3869 61.836C25.1463 61.9647 24.8715 62.015 24.601 61.9799C20.8456 61.4153 17.3192 59.824 14.4111 57.3817C11.503 54.9395 9.32618 51.7412 8.12095 48.1399C4.91095 38.5099 12.331 32.7199 6.98097 22.8399C6.8656 22.6242 6.81295 22.3805 6.82899 22.1363C6.84502 21.8922 6.9291 21.6575 7.0717 21.4587C7.21429 21.2599 7.40969 21.105 7.63578 21.0115C7.86188 20.9181 8.10963 20.8898 8.35096 20.9299C9.32362 21.0782 10.2832 21.3022 11.221 21.5999C11.4717 21.675 11.7393 21.6726 11.9887 21.593C12.2381 21.5135 12.4577 21.3605 12.6187 21.1541C12.7797 20.9477 12.8746 20.6975 12.8911 20.4363C12.9076 20.175 12.8448 19.9149 12.7109 19.6899C9.81095 14.7699 9.13094 8.23994 15.3609 0.489936C15.525 0.292176 15.7436 0.147023 15.9895 0.0725627C16.2355 -0.00189769 16.4979 -0.00238368 16.7441 0.0711589C16.9903 0.144701 17.2094 0.289036 17.3742 0.486183C17.539 0.68333 17.6422 0.924577 17.6709 1.17992C19.2309 14.7599 42.621 21.5399 47.151 35.1799" fill="#EE3124"/>
<path d="M4.92969 83.6001L5.57968 83.0801L5.91968 82.8401L6.24969 82.6101C6.69159 82.3159 7.14891 82.0455 7.61969 81.8001C8.51963 81.3227 9.46847 80.9439 10.4497 80.6701C12.3535 80.1327 14.3404 79.953 16.3097 80.1401C17.2962 80.2426 18.275 80.4096 19.2397 80.6401C20.2246 80.886 21.1932 81.1932 22.1397 81.5601L22.3297 81.6301L22.4997 81.7001L22.8497 81.8401L23.5397 82.1101C24.0097 82.2801 24.4697 82.4501 24.9397 82.6001C25.4097 82.7501 25.8697 82.9101 26.3397 83.0501L27.7497 83.4401C31.447 84.3893 35.2684 84.7638 39.0797 84.5501C40.985 84.4454 42.88 84.2014 44.7497 83.8201C45.2297 83.7301 45.6997 83.6301 46.1697 83.5201L47.5797 83.1701C48.5197 82.9301 49.4597 82.6501 50.3997 82.3601C48.6532 83.4363 46.8082 84.3437 44.8897 85.0701C43.0447 85.7806 41.1361 86.3131 39.1897 86.6601C37.2754 86.996 35.3327 87.1434 33.3897 87.1001C31.4317 87.0468 29.4831 86.8091 27.5697 86.3901L26.8397 86.2201L26.1197 86.0301C25.6397 85.9001 25.1197 85.7601 24.6697 85.6101L23.9497 85.3701L23.2297 85.1201L22.5097 84.8401L22.1597 84.7001L21.9797 84.6301L21.8097 84.5701C20.8897 84.2101 19.9597 83.9001 19.0297 83.6201C18.0997 83.3401 17.1597 83.1201 16.2297 82.9301C14.3771 82.5615 12.4865 82.4205 10.5997 82.5101C9.64981 82.5598 8.70432 82.6734 7.76968 82.8501C7.29968 82.9401 6.82968 83.0501 6.35968 83.1701L6.0097 83.2701L5.6597 83.3701L4.94971 83.5901" fill="#00306B"/>
<path d="M8.00961 72.72C10.5696 71.7722 13.2798 71.2945 16.0096 71.31C17.3899 71.3215 18.7672 71.4385 20.1296 71.66C21.5128 71.8839 22.8793 72.2013 24.2196 72.61L24.4796 72.69L24.7296 72.7701L25.2196 72.93L26.2196 73.22C26.8796 73.41 27.5296 73.6 28.2196 73.76C28.9096 73.92 29.5396 74.08 30.2196 74.22C30.8996 74.36 31.5396 74.4901 32.2196 74.6001C37.0338 75.4245 41.9431 75.5357 46.7896 74.93C60.1196 69.49 67.2496 56.84 64.0996 38.54C46.7496 60.19 3.85961 65.4401 3.84961 65.4601C4.62961 66.6901 4.95959 70.07 8.10959 72.72" fill="#00306B"/>
</g>
<defs>
<clipPath id="clip0_258_1535">
<rect width="248.32" height="92.17" fill="white"/>
</clipPath>
</defs>
</svg>
