
<svg width="249" height="93" viewBox="0 0 249 93" fill="none" xmlns="http://www.w3.org/2000/svg">
<g clip-path="url(#clip0_258_1535)">
<path d="M47.151 35.1399C48.4633 39.0745 48.5543 43.3142 47.412 47.3015C46.2697 51.2888 43.9476 54.8371 40.751 57.4799L38.701 55.9399C42.181 47.9999 38.2509 39.7299 31.5509 34.0899C31.3274 33.9015 31.0473 33.7932 30.7552 33.7823C30.463 33.7714 30.1756 33.8586 29.9387 34.0299C29.7018 34.2013 29.5291 34.4469 29.4479 34.7278C29.3668 35.0087 29.3819 35.3087 29.4909 35.5799C31.9709 41.9999 33.2809 48.3699 28.4309 53.1599C28.2641 53.3267 28.0557 53.4456 27.8272 53.5045C27.5988 53.5634 27.3588 53.5599 27.1322 53.4946C26.9056 53.4293 26.7006 53.3044 26.5386 53.133C26.3766 52.9616 26.2634 52.7499 26.2109 52.5199V52.4399C26.1467 52.1378 25.9779 51.8681 25.7341 51.6784C25.4904 51.4887 25.1874 51.3913 24.8788 51.4032C24.5702 51.4152 24.2757 51.5358 24.0474 51.7438C23.8191 51.9518 23.6716 52.2338 23.631 52.5399C23.4014 53.8215 23.4686 55.1387 23.8274 56.3903C24.1863 57.6419 24.8272 58.7946 25.701 59.7599C25.8927 59.954 26.0191 60.2031 26.0625 60.4724C26.1059 60.7418 26.0642 61.0179 25.943 61.2624C25.8219 61.5069 25.6275 61.7074 25.3869 61.836C25.1463 61.9647 24.8715 62.015 24.601 61.9799C20.8456 61.4153 17.3192 59.824 14.4111 57.3817C11.503 54.9395 9.32618 51.7412 8.12095 48.1399C4.91095 38.5099 12.331 32.7199 6.98097 22.8399C6.8656 22.6242 6.81295 22.3805 6.82899 22.1363C6.84502 21.8922 6.9291 21.6575 7.0717 21.4587C7.21429 21.2599 7.40969 21.105 7.63578 21.0115C7.86188 20.9181 8.10963 20.8898 8.35096 20.9299C9.32362 21.0782 10.2832 21.3022 11.221 21.5999C11.4717 21.675 11.7393 21.6726 11.9887 21.593C12.2381 21.5135 12.4577 21.3605 12.6187 21.1541C12.7797 20.9477 12.8746 20.6975 12.8911 20.4363C12.9076 20.175 12.8448 19.9149 12.7109 19.6899C9.81095 14.7699 9.13094 8.23994 15.3609 0.489936C15.525 0.292176 15.7436 0.147023 15.9895 0.0725627C16.2355 -0.00189769 16.4979 -0.00238368 16.7441 0.0711589C16.9903 0.144701 17.2094 0.289036 17.3742 0.486183C17.539 0.68333 17.6422 0.924577 17.6709 1.17992C19.2309 14.7599 42.621 21.5399 47.151 35.1799" fill="#EE3124"/>
<path d="M4.92969 83.6001L5.57968 83.0801L5.91968 82.8401L6.24969 82.6101C6.69159 82.3159 7.14891 82.0455 7.61969 81.8001C8.51963 81.3227 9.46847 80.9439 10.4497 80.6701C12.3535 80.1327 14.3404 79.953 16.3097 80.1401C17.2962 80.2426 18.275 80.4096 19.2397 80.6401C20.2246 80.886 21.1932 81.1932 22.1397 81.5601L22.3297 81.6301L22.4997 81.7001L22.8497 81.8401L23.5397 82.1101C24.0097 82.2801 24.4697 82.4501 24.9397 82.6001C25.4097 82.7501 25.8697 82.9101 26.3397 83.0501L27.7497 83.4401C31.447 84.3893 35.2684 84.7638 39.0797 84.5501C40.985 84.4454 42.88 84.2014 44.7497 83.8201C45.2297 83.7301 45.6997 83.6301 46.1697 83.5201L47.5797 83.1701C48.5197 82.9301 49.4597 82.6501 50.3997 82.3601C48.6532 83.4363 46.8082 84.3437 44.8897 85.0701C43.0447 85.7806 41.1361 86.3131 39.1897 86.6601C37.2754 86.996 35.3327 87.1434 33.3897 87.1001C31.4317 87.0468 29.4831 86.8091 27.5697 86.3901L26.8397 86.2201L26.1197 86.0301C25.6397 85.9001 25.1197 85.7601 24.6697 85.6101L23.9497 85.3701L23.2297 85.1201L22.5097 84.8401L22.1597 84.7001L21.9797 84.6301L21.8097 84.5701C20.8897 84.2101 19.9597 83.9001 19.0297 83.6201C18.0997 83.3401 17.1597 83.1201 16.2297 82.9301C14.3771 82.5615 12.4865 82.4205 10.5997 82.5101C9.64981 82.5598 8.70432 82.6734 7.76968 82.8501C7.29968 82.9401 6.82968 83.0501 6.35968 83.1701L6.0097 83.2701L5.6597 83.3701L4.94971 83.5901" fill="#00306B"/>
<path d="M8.00961 72.72C10.5696 71.7722 13.2798 71.2945 16.0096 71.31C17.3899 71.3215 18.7672 71.4385 20.1296 71.66C21.5128 71.8839 22.8793 72.2013 24.2196 72.61L24.4796 72.69L24.7296 72.7701L25.2196 72.93L26.2196 73.22C26.8796 73.41 27.5296 73.6 28.2196 73.76C28.9096 73.92 29.5396 74.08 30.2196 74.22C30.8996 74.36 31.5396 74.4901 32.2196 74.6001C37.0338 75.4245 41.9431 75.5357 46.7896 74.93C60.1196 69.49 67.2496 56.84 64.0996 38.54C46.7496 60.19 3.85961 65.4401 3.84961 65.4601C4.62961 66.6901 4.95959 70.07 8.10959 72.72" fill="#00306B"/>
<path d="M114.411 52.25V52.58H111.051C107.291 52.58 104.831 51.41 102.701 48.32L93.3109 34.81V34.48L105.751 21.3L104.181 17.6V17.27H113.821V17.6L98.4108 32.35L109.371 47.14C110.675 49.1607 112.376 50.8957 114.371 52.24L114.411 52.25ZM91.9009 48.54L93.5809 52.24V52.57H84.3809V52.24L86.0709 48.54V21.3L84.3809 17.6V17.27H93.5809V17.6L91.9009 21.3V48.54Z" fill="#00306B"/>
<path d="M143.95 52.2501V52.5801H134.95V52.2501L136.64 48.5501V37.1401C136.64 31.7001 134.23 29.9101 130.97 29.9101C128.803 29.9861 126.736 30.8419 125.15 32.3201V48.5801L126.83 52.2801V52.6101H117.83V52.2801L119.51 48.5801V19.6201L117.83 15.9801V15.6401L124.78 13.5701L125.12 13.7401V30.6601C125.938 29.1376 127.148 27.8617 128.625 26.9649C130.102 26.0681 131.792 25.583 133.52 25.5601C139.75 25.5601 142.21 30.1001 142.21 36.3301V48.5501L143.95 52.2501Z" fill="#00306B"/>
<path d="M163.519 46.64V41.2C161.522 40.6905 159.47 40.4286 157.409 40.42C154.599 40.42 152.469 41.82 152.469 44.29C152.469 47.09 154.599 48.94 157.689 48.94C158.766 48.974 159.839 48.7876 160.842 48.392C161.844 47.9965 162.755 47.4003 163.519 46.64ZM172.599 48.83C171.809 51.52 169.789 53.14 167.439 53.14C165.249 53.14 163.849 51.8 163.569 48.43C162.638 49.9196 161.339 51.1451 159.798 51.9891C158.258 52.8331 156.526 53.2672 154.769 53.25C150.849 53.25 147.539 50.73 147.539 46.92C147.539 40.98 153.149 38.18 163.539 37.5V36.5C163.539 31.79 160.619 29.83 157.199 29.83C155.713 29.829 154.242 30.1379 152.882 30.7371C151.522 31.3363 150.302 32.2126 149.299 33.31L148.959 33.08C149.739 30.885 151.173 28.9822 153.069 27.6285C154.965 26.2747 157.23 25.5353 159.559 25.51C165.779 25.51 169.139 29.89 169.139 35.72V45.36C169.139 47.77 169.649 48.89 171.049 48.89C171.484 48.907 171.914 48.7882 172.279 48.55L172.599 48.83Z" fill="#00306B"/>
<path d="M196.981 45.3L197.321 45.46L194.911 52.58H175.311L175.141 52.25L190.391 28.2C184.331 28.31 179.511 29.71 176.041 33.13L175.701 32.96L176.931 26.57L177.321 26.24H197.221L197.391 26.57L182.311 50.34C188.091 50.12 193.641 48.49 197.001 45.34" fill="#00306B"/>
<path d="M216.54 46.64V41.2C214.543 40.6905 212.491 40.4286 210.43 40.42C207.63 40.42 205.5 41.82 205.5 44.29C205.5 47.09 207.63 48.94 210.71 48.94C211.788 48.9758 212.861 48.7902 213.864 48.3945C214.867 47.9989 215.778 47.4018 216.54 46.64ZM225.62 48.83C224.84 51.52 222.82 53.14 220.47 53.14C218.28 53.14 216.88 51.8 216.6 48.43C215.668 49.919 214.37 51.1439 212.829 51.9878C211.288 52.8317 209.557 53.2663 207.8 53.25C203.87 53.25 200.57 50.73 200.57 46.92C200.57 40.98 206.17 38.18 216.57 37.5V36.5C216.57 31.79 213.66 29.83 210.24 29.83C208.753 29.8294 207.281 30.1385 205.919 30.7377C204.557 31.3368 203.335 32.2128 202.33 33.31L202 33.08C202.777 30.885 204.209 28.9817 206.104 27.6277C207.998 26.2737 210.262 25.5345 212.59 25.51C218.81 25.51 222.18 29.89 222.18 35.72V45.36C222.18 47.77 222.68 48.89 224.08 48.89C224.519 48.9084 224.952 48.7896 225.32 48.55L225.62 48.83Z" fill="#00306B"/>
<path d="M248.309 26.7401L246.309 31.2301H245.979C245.166 30.6885 244.206 30.4125 243.229 30.4401C241.17 30.5632 239.223 31.4179 237.739 32.8501V48.5501L239.979 52.2501V52.5801H230.449V52.2501L232.129 48.5501V31.6201L230.449 27.9701V27.6401L237.399 25.5601L237.739 25.7301V31.2301C239.589 27.8601 242.499 25.6801 245.079 25.6801C246.252 25.6028 247.41 25.9827 248.309 26.7401Z" fill="#00306B"/>
<path d="M87.8205 63.3V76.14C87.8205 81.01 89.9805 83.07 92.8805 83.07C96.1105 83.07 98.1705 80.94 98.1705 76.14V63.3H101.01V75.97C101.01 82.65 97.4905 85.39 92.7905 85.39C88.3305 85.39 84.9805 82.8401 84.9805 76.1001V63.3H87.8205Z" fill="#00306B"/>
<path d="M105.79 73.65C105.79 72.04 105.79 70.71 105.66 69.42H108.18L108.34 72.01H108.4C108.91 71.0961 109.661 70.339 110.57 69.8208C111.48 69.3026 112.514 69.043 113.56 69.07C115.73 69.07 119.08 70.36 119.08 75.71V85.04H116.24V76.04C116.24 73.52 115.31 71.42 112.63 71.42C111.543 71.4617 110.515 71.928 109.767 72.7187C109.019 73.5095 108.611 74.5618 108.63 75.65V85.04H105.79V73.65Z" fill="#00306B"/>
<path d="M127.31 65.0401C127.31 65.5069 127.124 65.9545 126.794 66.2846C126.464 66.6147 126.017 66.8001 125.55 66.8001C125.083 66.8001 124.635 66.6147 124.305 66.2846C123.975 65.9545 123.79 65.5069 123.79 65.0401C123.783 64.8045 123.824 64.5699 123.911 64.3508C123.998 64.1317 124.129 63.9327 124.296 63.7661C124.462 63.5994 124.661 63.4685 124.881 63.3815C125.1 63.2945 125.334 63.2532 125.57 63.2601C125.804 63.2528 126.037 63.2942 126.254 63.3816C126.471 63.4691 126.667 63.6006 126.831 63.7679C126.994 63.9353 127.121 64.1347 127.204 64.3537C127.286 64.5727 127.322 64.8064 127.31 65.0401ZM124.15 85.0401V69.4201H126.98V85.0401H124.15Z" fill="#00306B"/>
<path d="M132.76 69.4199L135.831 78.1999C136.341 79.6199 136.761 80.9099 137.091 82.1999H137.18C137.54 80.9099 137.99 79.6199 138.5 78.1999L141.5 69.4199H144.5L138.38 85.0399H135.67L129.73 69.4199H132.76Z" fill="#00306B"/>
<path d="M150.06 77.7501C150.12 81.5901 152.57 83.1701 155.41 83.1701C156.891 83.2153 158.365 82.939 159.73 82.3601L160.22 84.3601C158.576 85.0557 156.804 85.3964 155.02 85.3601C150.22 85.3601 147.35 82.2001 147.35 77.4901C147.35 72.7801 150.12 69.0701 154.67 69.0701C159.77 69.0701 161.12 73.5501 161.12 76.4201C161.118 76.8652 161.085 77.3097 161.02 77.7501H150.06ZM158.38 75.7501C158.38 73.9501 157.64 71.1401 154.44 71.1401C151.57 71.1401 150.31 73.7901 150.09 75.7501H158.38Z" fill="#00306B"/>
<path d="M164.64 74.3001C164.64 72.4601 164.64 70.8801 164.51 69.4201H166.99L167.09 72.4901H167.22C167.485 71.5364 168.047 70.6915 168.823 70.0769C169.599 69.4624 170.55 69.1099 171.54 69.0701C171.813 69.0651 172.086 69.0987 172.35 69.1701V71.8401C172.021 71.7734 171.685 71.7433 171.35 71.7501C169.35 71.7501 167.93 73.2601 167.54 75.3901C167.466 75.8263 167.426 76.2677 167.42 76.7101V85.0401H164.61L164.64 74.3001Z" fill="#00306B"/>
<path d="M174.8 82.1399C175.927 82.8438 177.221 83.2339 178.55 83.2699C180.61 83.2699 181.55 82.2699 181.55 80.9499C181.55 79.6299 180.74 78.8499 178.64 78.0799C175.84 77.0799 174.52 75.5299 174.52 73.6599C174.52 71.1399 176.52 69.0799 179.9 69.0799C181.245 69.0743 182.568 69.419 183.74 70.0799L183.03 72.1399C182.072 71.5463 180.967 71.2344 179.84 71.2399C178.16 71.2399 177.22 72.2399 177.22 73.3699C177.22 74.4999 178.16 75.2399 180.22 76.0099C182.93 77.0099 184.32 78.3999 184.32 80.7199C184.32 83.4599 182.19 85.3999 178.48 85.3999C176.95 85.4254 175.439 85.0606 174.09 84.3399L174.8 82.1399Z" fill="#00306B"/>
<path d="M191.13 65.0401C191.13 65.5069 190.945 65.9545 190.615 66.2846C190.285 66.6147 189.837 66.8001 189.37 66.8001C188.903 66.8001 188.456 66.6147 188.126 66.2846C187.796 65.9545 187.61 65.5069 187.61 65.0401C187.603 64.8045 187.645 64.5699 187.732 64.3508C187.819 64.1317 187.949 63.9327 188.116 63.7661C188.283 63.5994 188.482 63.4685 188.701 63.3815C188.92 63.2945 189.155 63.2532 189.39 63.2601C189.624 63.2528 189.857 63.2942 190.074 63.3816C190.291 63.4691 190.488 63.6006 190.651 63.7679C190.815 63.9353 190.942 64.1347 191.024 64.3537C191.107 64.5727 191.143 64.8064 191.13 65.0401ZM187.97 85.0401V69.4201H190.81V85.0401H187.97Z" fill="#00306B"/>
<path d="M198.939 64.9399V69.4199H202.999V71.5899H198.939V79.9999C198.939 81.9399 199.479 82.9999 201.059 82.9999C201.616 83.0082 202.171 82.941 202.709 82.7999L202.839 84.9299C202.031 85.2161 201.176 85.3483 200.319 85.3199C199.762 85.3473 199.206 85.2563 198.688 85.0529C198.169 84.8495 197.699 84.5383 197.309 84.1399C196.499 83.2999 196.209 81.9099 196.209 80.0699V71.5599H193.789V69.3899H196.209V65.6499L198.939 64.9399Z" fill="#00306B"/>
<path d="M207.231 69.4199L210.651 78.6499C211.001 79.6499 211.391 80.9099 211.651 81.8399H211.711C212.001 80.9099 212.321 79.7099 212.711 78.5899L215.811 69.4199H218.811L214.551 80.5499C212.551 85.9099 211.131 88.6499 209.191 90.3299C208.206 91.2228 207.007 91.8462 205.711 92.1399L205.001 89.7499C205.911 89.4474 206.756 88.9758 207.491 88.3599C208.52 87.5066 209.335 86.4244 209.871 85.1999C209.987 84.9884 210.065 84.7583 210.101 84.5199C210.072 84.2646 210.004 84.0151 209.901 83.7799L204.131 69.3899L207.231 69.4199Z" fill="#00306B"/>
</g>
<defs>
<clipPath id="clip0_258_1535">
<rect width="248.32" height="92.17" fill="white"/>
</clipPath>
</defs>
</svg>
